<mxfile host="app.diagrams.net" modified="2023-07-21T05:55:52.317Z" agent="Mozilla/5.0 (Windows NT 10.0; Win64; x64) AppleWebKit/537.36 (KHTML, like Gecko) Chrome/114.0.0.0 Safari/537.36" version="21.6.5" etag="b_QXB8v0_akZGC6vEHnK" type="github">
  <diagram name="第 1 页" id="cZzVliG4zLSp5B3XJy65">
    <mxGraphModel>
      <root>
        <mxCell id="0" />
        <mxCell id="1" parent="0" />
      </root>
    </mxGraphModel>
  </diagram>
</mxfile>
